# AST/ASF file generated using VICON BodyLanguage
# -----------------------------------------------
:version 1.10
:name VICON
:units
  mass 1.0
  length 0.45
  angle deg
:documentation
   .ast/.asf automatically generated from VICON data using
   VICON BodyBuilder and BodyLanguage model FoxedUp or BRILLIANT.MOD
:root
   order TX TY TZ RX RY RZ
   axis XYZ
   position 0 0 0  
   orientation 0 0 0 
:bonedata
  begin
     id 1 
     name lhipjoint
     direction 0.623415 -0.642378 0.445763 
     length 2.49859 
     axis 0 0 0  XYZ
  end
  begin
     id 2 
     name lfemur
     direction 0.34202 -0.939693 0  
     length 6.69689  
     axis 0 0 20  XYZ
    dof rx ry rz
    limits (-160.0 20.0)
           (-70.0 70.0)
           (-60.0 70.0)
  end
  begin
     id 3 
     name ltibia
     direction 0.34202 -0.939693 0   
     length 7.37574   
     axis 0 0 20   XYZ
    dof rx
    limits (-10.0 170.0)
  end
  begin
     id 4 
     name lfoot
     direction 0.084323 -0.231675 0.969132   
     length 2.09111   
     axis -90 7.62852e-016 20   XYZ
    dof rx rz
    limits (-45.0 90.0)
           (-70.0 20.0)
  end
  begin
     id 5 
     name ltoes
     direction 1.5357e-011 -4.21957e-011 1   
     length 1.04989   
     axis -90 7.62852e-016 20   XYZ
    dof rx
    limits (-90.0 20.0)
  end
  begin
     id 6 
     name rhipjoint
     direction -0.605402 -0.653903 0.45376   
     length 2.45455  
     axis 0 0 0  XYZ 
  end
  begin
     id 7 
     name rfemur
     direction -0.34202 -0.939693 0   
     length 6.64523   
     axis 0 0 -20   XYZ
    dof rx ry rz
    limits (-160.0 20.0)
           (-70.0 70.0)
           (-70.0 60.0)
  end
  begin
     id 8 
     name rtibia
     direction -0.34202 -0.939693 0   
     length 7.3339   
     axis 0 0 -20   XYZ
    dof rx
    limits (-10.0 170.0)
 end
 begin
     id 9 
     name rfoot
     direction -0.120854 -0.332043 0.93549   
     length 2.23135  
     axis -90 -7.62852e-016 -20   XYZ
    dof rx rz
    limits (-45.0 90.0)
           (-20.0 70.0)
  end
  begin
     id 10 
     name rtoes
     direction -1.53563e-011 -4.21914e-011 1   
     length 1.10614   
     axis -90 -7.62852e-016 -20   XYZ
    dof rx
    limits (-90.0 20.0)
  end
  begin
     id 11 
     name lowerback
     direction 0.0319682 0.998615 -0.0417941   
     length 2.02718   
     axis 0 0 0   XYZ
    dof rx ry rz
    limits (-20.0 45.0)
           (-30.0 30.0)
           (-30.0 30.0)
  end
  begin
     id 12 
     name upperback
     direction 7.63181e-005 0.995808 0.0914691   
     length 1.97539   
     axis 0 0 0   XYZ
    dof rx ry rz
    limits (-20.0 45.0)
           (-30.0 30.0)
           (-30.0 30.0)
  end
  begin
     id 13 
     name thorax
     direction -0.016423 0.993627 0.111514   
     length 2.00349   
     axis 0 0 0   XYZ
    dof rx ry rz
    limits (-20.0 45.0)
           (-30.0 30.0)
           (-30.0 30.0)
  end
  begin
     id 14 
     name lowerneck
     direction -0.174763 0.981668 -0.0760716   
     length 1.71436   
     axis 0 0 0   XYZ
    dof rx ry rz
    limits (-20.0 45.0)
           (-30.0 30.0)
           (-30.0 30.0)
  end
  begin
     id 15 
     name upperneck
     direction 0.345458 0.934587 -0.0848868   
     length 1.72805   
     axis 0 0 0   XYZ
    dof rx ry rz
    limits (-20.0 45.0)
           (-30.0 30.0)
           (-30.0 30.0)
  end
  begin
     id 16
     name head
     direction 0.13001 0.989848 -0.0574291  
     length 1.767  
     axis 0 0 0   XYZ
    dof rx ry rz
    limits (-20.0 45.0)
           (-30.0 30.0)
           (-30.0 30.0)
  end
  begin
     id 17 
     name lclavicle
     direction 0.952951 0.290122 0.0878234  
     length 3.54654  
     axis 0 0 0   XYZ
    dof ry rz
    limits (-20.0 10.0)
           (0.0 20.0)
  end
  begin
     id 18 
     name lhumerus
     direction 1 -4.48957e-011 -4.56525e-028   
     length 5.19807   
     axis 180 -30 -90   XYZ
    dof rx ry rz
    limits (-60.0 90.0)
           (-90.0 90.0)
           (-90.0 90.0)
  end
  begin
     id 19
     name lradius
     direction 1 -4.48979e-011 -2.0317e-027   
     length 3.0937   
     axis 180 -30 -90   XYZ
    dof rx
    limits (-10.0 170.0)
  end
  begin
     id 20
     name lwrist
     direction 1 -4.48953e-011 -3.05809e-027   
     length 1.54685   
     axis 8.48514e-016 90 90   XYZ
    dof ry
    limits (-180.0 0.0)
 end
  begin
     id 21 
     name lhand
     direction 1 -4.48952e-011 -6.11639e-027   
     length 0.672632   
     axis 3.9013e-015 90 90   XYZ
    dof rx rz
    limits (-90.0 90.0)
           (-45.0 45.0)
  end
  begin
     id 22 
     name lfingers
     direction 1 -4.48925e-011 -1.22426e-026   
     length 0.542293   
     axis 7.80276e-015 90 90   XYZ
    dof rx
    limits (0.0 90.0)
  end
  begin
     id 23
     name lthumb
     direction 0.707107 -6.3486e-011 0.707107   
     length 0.778628   
     axis -90 45 5.37419e-014   XYZ
    dof rx rz
    limits (-45.0 45.0)
           (-45.0 45.0)
  end
  begin
     id 24 
     name rclavicle
     direction -0.960732 0.273675 -0.0457849   
     length 3.52079  
     axis 0 0 0   XYZ 
    dof ry rz
    limits (-10.0 20.0)
           (-20.0 0.0)
  end
  begin
     id 25 
     name rhumerus
     direction -1 -4.48976e-011 -1.63613e-027  
     length 5.45222   
     axis 180 30 90   XYZ
    dof rx ry rz
    limits (-90.0 60.0)
           (-90.0 90.0)
           (-90.0 90.0)
  end
  begin
     id 26 
     name rradius
     direction -1 -4.48957e-011 -7.00033e-028   
     length 3.01284   
     axis 180 30 90   XYZ
    dof rx
    limits (-10.0 170.0)
  end
  begin
     id 27 
     name rwrist
     direction -1 -4.48983e-011 -3.05543e-027   
     length 1.50642   
     axis 8.48514e-016 -90 -90   XYZ
    dof ry
    limits (-180.0 0.0)
  end
  begin
     id 28
     name rhand
     direction -1 -4.48984e-011 -6.11072e-027   
     length 0.622296   
     axis 3.9013e-015 -90 -90   XYZ
    dof rx rz
    limits (-90.0 90.0)
           (-45.0 45.0)
  end
  begin
     id 29
     name rfingers
     direction -1 -4.48865e-011 -1.22637e-026   
     length 0.501711   
     axis 7.80276e-015 -90 -90   XYZ
    dof rx
    limits (0.0 90.0)
  end
  begin
     id 30
     name rthumb
     direction -0.707107 -6.34932e-011 0.707107   
     length 0.72036   
     axis -90 -45 -5.37419e-014   XYZ
    dof rx rz
    limits (-45.0 45.0)
           (-45.0 45.0)
  end
:hierarchy
  begin
    root lhipjoint rhipjoint lowerback
    lhipjoint lfemur
    lfemur ltibia
    ltibia lfoot
    lfoot ltoes
    rhipjoint rfemur
    rfemur rtibia
    rtibia rfoot
    rfoot rtoes
    lowerback upperback
    upperback thorax
    thorax lowerneck lclavicle rclavicle
    lowerneck upperneck
    upperneck head
    lclavicle lhumerus
    lhumerus lradius
    lradius lwrist
    lwrist lhand lthumb
    lhand lfingers
    rclavicle rhumerus
    rhumerus rradius
    rradius rwrist
    rwrist rhand rthumb
    rhand rfingers
  end

#!OML:ASF H:\Not Pregnant\Project 1\Capture day 1\Session 1\non-pregnant.ASF
:FULLY-SPECIFIED
:DEGREES
103
root -5.64873 16.3661 35.115 152.323 -83.0575 -138.732
lowerback -12.9476 2.97948 3.78768
upperback -6.91116 3.17267 -0.271718
thorax 0.215856 1.33826 -1.99855
lowerneck 21.2647 -9.57842 -30.2244
upperneck -11.5142 -20.262 44.3418
head 2.19489 -13.4392 23.4073
rclavicle -1.41137e-014 -6.75868e-015
rhumerus 10.0475 -16.9172 -66.9211
rradius 106.032
rwrist -9.19884
rhand -36.9252 -7.36476
rfingers 7.12502
rthumb -10.0025 -37.1071
lclavicle -1.41137e-014 -6.75868e-015
lhumerus -41.6125 -7.42026 90.1546
lradius 34.0288
lwrist 48.2214
lhand 17.37 -5.08271
lfingers 7.12502
lthumb 42.0777 19.4813
rfemur 0 0 0
rtibia 0
rfoot 0 0
rtoes 0
lfemur -17.2098 6.44225 -17.2041
ltibia 15.44
lfoot -13.0543 -6.08435
ltoes -15.8165
104
root -5.65097 16.3656 35.1144 151.8 -83.1493 -138.213
lowerback -12.9566 2.95243 3.75251
upperback -6.90525 3.14088 -0.266336
thorax 0.222936 1.3238 -1.9771
lowerneck 21.198 -9.58313 -30.2539
upperneck -11.5091 -20.2608 44.3491
head 2.21533 -13.4327 23.4084
rclavicle 6.06293e-015 4.37326e-015
rhumerus 9.87782 -16.4415 -65.7869
rradius 105.021
rwrist 0.268266
rhand -35.4237 -5.70858
rfingers 7.12502
rthumb -8.55367 -35.5153
lclavicle 6.06293e-015 4.37326e-015
lhumerus -41.6275 -7.33911 90.1722
lradius 34.0234
lwrist 48.0173
lhand 17.3126 -5.30627
lfingers 7.12502
lthumb 42.0239 19.2758
rfemur 0 0 0
rtibia 0
rfoot 0 0
rtoes 0
lfemur -17.2177 6.40554 -17.2105
ltibia 15.4486
lfoot -13.0666 -6.15357
ltoes -15.7892
105
root -5.65308 16.365 35.1134 151.2 -83.232 -137.622
lowerback -12.9653 2.92146 3.71769
upperback -6.89198 3.10398 -0.249497
thorax 0.236713 1.30735 -1.94447
lowerneck 21.11 -9.58424 -30.2986
upperneck -11.49 -20.2569 44.3577
head 2.24508 -13.4228 23.4123
rclavicle -1.13307e-014 -3.18055e-014
rhumerus 9.75959 -16.3092 -64.7685
rradius 104.062
rwrist 10.4911
rhand -34.3359 -3.68538
rfingers 7.12502
rthumb -7.50381 -33.5323
lclavicle -1.13307e-014 -3.18055e-014
lhumerus -41.6293 -7.2384 90.1847
lradius 34.0297
lwrist 47.9256
lhand 17.2269 -5.41375
lfingers 7.12502
lthumb 41.9435 19.1952
rfemur 0 0 0
rtibia 0
rfoot 0 0
rtoes 0
lfemur -17.2264 6.37 -17.2031
ltibia 15.4648
lfoot -13.0812 -6.21727
ltoes -15.776
106
root -5.65499 16.3643 35.1117 150.473 -83.301 -136.907
lowerback -12.9687 2.88887 3.6908
upperback -6.8731 3.06443 -0.223207
thorax 0.253338 1.28981 -1.9069
lowerneck 21.0083 -9.58233 -30.3515
upperneck -11.4612 -20.2508 44.3703
head 2.28117 -13.411 23.4204
rclavicle -8.34896e-015 -1.70955e-014
rhumerus 9.70266 -16.557 -63.9145
rradius 103.262
rwrist 21.0504
rhand -33.8781 -1.31883
rfingers 7.12502
rthumb -7.06191 -31.181
lclavicle -8.34896e-015 -1.70955e-014
lhumerus -41.6201 -7.11882 90.1788
lradius 34.0644
lwrist 47.9991
lhand 17.1449 -5.32467
lfingers 7.12502
lthumb 41.8666 19.3099
rfemur 0 0 0
rtibia 0
rfoot 0 0
rtoes 0
lfemur -17.236 6.3381 -17.1722
ltibia 15.4904
lfoot -13.0986 -6.27937
ltoes -15.7613
107
root -5.65665 16.3636 35.1099 149.841 -83.3721 -136.288
lowerback -12.9695 2.8552 3.65115
upperback -6.85061 3.02534 -0.201256
thorax 0.272102 1.27295 -1.86666
lowerneck 20.9001 -9.57808 -30.4057
upperneck -11.4276 -20.2422 44.3883
head 2.32005 -13.3984 23.4332
rclavicle 3.27995e-015 2.78299e-015
rhumerus 9.72274 -17.1735 -63.2397
rradius 102.678
rwrist 31.486
rhand -34.2088 1.51161
rfingers 7.12502
rthumb -7.38115 -28.3396
lclavicle 3.27995e-015 2.78299e-015
lhumerus -41.6044 -7.0014 90.1598
lradius 34.1149
lwrist 48.1462
lhand 17.0483 -5.12014
lfingers 7.12502
lthumb 41.7761 19.5445
rfemur 0 0 0
rtibia 0
rfoot 0 0
rtoes 0
lfemur -17.2455 6.31283 -17.1551
ltibia 15.5165
lfoot -13.116 -6.34497
ltoes -15.7626
108
root -5.65808 16.363 35.1081 149.293 -83.4472 -135.754
lowerback -12.9683 2.81761 3.59834
upperback -6.82561 2.98288 -0.183358
thorax 0.291931 1.25481 -1.82375
lowerneck 20.786 -9.56944 -30.4573
upperneck -11.3865 -20.2274 44.4087
head 2.35935 -13.3827 23.4494
rclavicle 5.02925e-014 1.70955e-014
rhumerus 9.82297 -18.0555 -62.7471
rradius 102.327
rwrist 41.2995
rhand -35.4293 4.40607
rfingers 7.12502
rthumb -8.55909 -25.4005
lclavicle 5.02925e-014 1.70955e-014
lhumerus -41.5963 -6.91163 90.1487
lradius 34.1573
lwrist 48.2464
lhand 16.8696 -4.9923
lfingers 7.12502
lthumb 41.6085 19.7276
rfemur 0 0 0
rtibia 0
rfoot 0 0
rtoes 0
lfemur -17.2533 6.2857 -17.1501
ltibia 15.5403
lfoot -13.1307 -6.40863
ltoes -15.7592
109
root -5.65935 16.3626 35.1061 148.78 -83.5209 -135.257
lowerback -12.9649 2.79175 3.54631
upperback -6.79798 2.95646 -0.177676
thorax 0.314977 1.24469 -1.79182
lowerneck 20.6847 -9.56488 -30.4952
upperneck -11.3565 -20.2168 44.4381
head 2.39507 -13.3722 23.4696
rclavicle 1.27222e-014 1.35174e-014
rhumerus 9.98528 -19.1181 -62.3896
rradius 102.164
rwrist 49.9433
rhand -37.5094 7.53359
rfingers 7.12502
rthumb -10.5661 -22.1808
lclavicle 1.27222e-014 1.35174e-014
lhumerus -41.5967 -6.90695 90.167
lradius 34.1743
lwrist 48.2665
lhand 16.6029 -5.0408
lfingers 7.12502
lthumb 41.3583 19.7606
rfemur 0 0 0
rtibia 0
rfoot 0 0
rtoes 0
lfemur -17.2541 6.25694 -17.1473
ltibia 15.5566
lfoot -13.1414 -6.46921
ltoes -15.7506
110
root -5.66056 16.3621 35.1037 148.243 -83.5888 -134.739
lowerback -12.9581 2.774 3.4978
upperback -6.7658 2.94097 -0.177643
thorax 0.342096 1.24015 -1.76627
lowerneck 20.5818 -9.56743 -30.5195
upperneck -11.3296 -20.2121 44.4704
head 2.43162 -13.3653 23.4855
rclavicle 4.41799e-014 3.10104e-014
rhumerus 10.2075 -20.2093 -62.1307
rradius 102.124
rwrist 56.9718
rhand -40.2362 10.99
rfingers 7.12502
rthumb -13.1954 -18.5724
lclavicle 4.41799e-014 3.10104e-014
lhumerus -41.5964 -6.94361 90.1881
lradius 34.1829
lwrist 48.3137
lhand 16.3178 -5.13593
lfingers 7.12502
lthumb 41.0906 19.7516
rfemur 0 0 0
rtibia 0
rfoot 0 0
rtoes 0
lfemur -17.2505 6.22482 -17.1366
ltibia 15.5743
lfoot -13.1523 -6.52283
ltoes -15.7492
111
root -5.66179 16.3618 35.1011 147.688 -83.654 -134.205
lowerback -12.9497 2.75908 3.45324
upperback -6.73379 2.92889 -0.178898
thorax 0.368577 1.23718 -1.74387
lowerneck 20.4854 -9.56752 -30.5471
upperneck -11.2972 -20.2076 44.5012
head 2.4686 -13.3588 23.5028
rclavicle -5.26779e-015 1.90833e-014
rhumerus 10.4698 -21.2243 -61.9586
rradius 102.129
rwrist 62.1531
rhand -43.2318 15.0189
rfingers 7.12502
rthumb -16.0816 -14.3338
lclavicle -5.26779e-015 1.90833e-014
lhumerus -41.603 -6.99126 90.2025
lradius 34.1935
lwrist 48.4145
lhand 16.0442 -5.21168
lfingers 7.12502
lthumb 40.8336 19.7574
rfemur 0 0 0
rtibia 0
rfoot 0 0
rtoes 0
lfemur -17.2471 6.18416 -17.1214
ltibia 15.5996
lfoot -13.1666 -6.56649
ltoes -15.7467
112
root -5.66309 16.3614 35.0977 146.981 -83.7036 -133.522
lowerback -12.9373 2.73672 3.42249
upperback -6.69954 2.90532 -0.163947
thorax 0.39449 1.22838 -1.71403
lowerneck 20.3675 -9.56289 -30.5966
upperneck -11.2387 -20.2017 44.5224
head 2.51731 -13.3476 23.5158
rclavicle 1.68967e-014 3.4191e-014
rhumerus 10.7766 -22.0693 -61.8523
rradius 102.13
rwrist 65.4251
rhand -46.0603 19.8287
rfingers 7.12502
rthumb -18.8037 -9.28248
lclavicle 1.68967e-014 3.4191e-014
lhumerus -41.6155 -7.01947 90.2146
lradius 34.1912
lwrist 48.4905
lhand 15.747 -5.35073
lfingers 7.12502
lthumb 40.5543 19.7057
rfemur 0 0 0
rtibia 0
rfoot 0 0
rtoes 0
lfemur -17.2443 6.14495 -17.0794
ltibia 15.634
lfoot -13.1855 -6.60527
ltoes -15.7552
113
root -5.66444 16.3608 35.0943 146.221 -83.7479 -132.785
lowerback -12.9214 2.70867 3.39487
upperback -6.66772 2.87365 -0.139962
thorax 0.415234 1.21538 -1.67784
lowerneck 20.2342 -9.55364 -30.6596
upperneck -11.1538 -20.1924 44.5295
head 2.57338 -13.3306 23.5206
rclavicle -1.19271e-014 -8.74653e-015
rhumerus 11.0924 -22.7438 -61.7868
rradius 102.122
rwrist 67.0846
rhand -48.3437 24.9878
rfingers 7.12502
rthumb -20.9986 -3.89546
lclavicle -1.19271e-014 -8.74653e-015
lhumerus -41.6321 -7.01817 90.2116
lradius 34.1881
lwrist 48.6276
lhand 15.4799 -5.45053
lfingers 7.12502
lthumb 40.3032 19.6833
rfemur 0 0 0
rtibia 0
rfoot 0 0
rtoes 0
lfemur -17.2461 6.10693 -17.0303
ltibia 15.6771
lfoot -13.2093 -6.64452
ltoes -15.7639
